<svg width="64" height="64" viewBox="0 0 64 64" fill="none" xmlns="http://www.w3.org/2000/svg">
<path d="M13.25 1.65625H50.75C57.153 1.65625 62.3438 6.84695 62.3438 13.25V50.75C62.3438 57.153 57.153 62.3438 50.75 62.3438H1.65625V13.25C1.65625 6.84695 6.84695 1.65625 13.25 1.65625Z" stroke="#7C7C7C" stroke-width="3.3125"/>
<path d="M19.2944 41.7278L29.0355 31.9867L35.0088 37.96C35.7624 38.7136 36.9754 38.6768 37.6738 37.8865L50.8519 23.0543C51.4952 22.3375 51.4584 21.2347 50.7784 20.5363C50.6017 20.3602 50.3911 20.2219 50.1593 20.1298C49.9275 20.0378 49.6794 19.9938 49.4301 20.0007C49.1808 20.0076 48.9354 20.0651 48.7091 20.1699C48.4827 20.2746 48.28 20.4243 48.1134 20.6098L36.3689 33.8063L30.3221 27.7594C30.152 27.5891 29.9501 27.4539 29.7277 27.3616C29.5054 27.2694 29.267 27.2219 29.0263 27.2219C28.7856 27.2219 28.5473 27.2694 28.3249 27.3616C28.1026 27.4539 27.9006 27.5891 27.7306 27.7594L16.5375 38.9709C16.3671 39.1409 16.2319 39.3429 16.1397 39.5652C16.0475 39.7876 16 40.0259 16 40.2666C16 40.5074 16.0475 40.7457 16.1397 40.968C16.2319 41.1904 16.3671 41.3924 16.5375 41.5624L16.7029 41.7278C17.4197 42.4446 18.596 42.4446 19.2944 41.7278Z" fill="#7C7C7C"/>
</svg>
